<svg width="200" height="40" version="1.1" viewBox="0 0 52.9 10.6" xmlns="http://www.w3.org/2000/svg">
  <g transform="matrix(.992 0 0 1.04 -48.7 -78.3)">
    <g transform="matrix(.265 0 0 .265 30.7 38.3)" stroke-linecap="round" stroke-width="14" style="paint-order:fill markers stroke;shape-inside:url(#rect4806);white-space:pre" aria-label="RosyTunes">
      <path d="m92.7 165q0.555 0.341 0.853 0.896 0.341 0.555 0.341 1.15 0 0.768-0.512 1.41-0.64 0.768-1.96 0.768-1.02 0-1.88-0.469-3.07-1.75-3.07-7.13 0-1.54-1.02-2.43-0.981-0.896-2.86-0.896h-7.98v8.28q0 1.15-0.64 1.88-0.597 0.725-1.62 0.725-1.24 0-2.18-0.725-0.896-0.768-0.896-1.88v-24.7q0-1.11 0.725-1.83 0.768-0.768 1.88-0.768h12.3q2.22 0 4.18 1.19t3.11 3.29q1.19 2.09 1.19 4.69 0 2.13-1.15 4.18-1.15 2.01-2.99 3.2 2.69 1.88 2.94 5.03 0.128 0.683 0.128 1.32 0.171 1.32 0.341 1.92 0.171 0.555 0.768 0.853zm-8.75-11.1q0.768 0 1.49-0.725 0.725-0.725 1.19-1.92 0.469-1.24 0.469-2.65 0-1.19-0.469-2.18-0.469-1.02-1.19-1.62-0.725-0.597-1.49-0.597h-9.34v9.69z"/>
      <path d="m117 158q0 3.41-1.54 6.14-1.54 2.69-4.22 4.18-2.65 1.49-5.85 1.49-3.24 0-5.89-1.49t-4.18-4.18q-1.54-2.73-1.54-6.14t1.54-6.1q1.54-2.73 4.18-4.22 2.65-1.54 5.89-1.54 3.2 0 5.85 1.54 2.69 1.49 4.22 4.22 1.54 2.69 1.54 6.1zm-5.12 0q0-2.09-0.896-3.71-0.853-1.66-2.35-2.56-1.45-0.896-3.24-0.896t-3.29 0.896q-1.45 0.896-2.35 2.56-0.853 1.62-0.853 3.71t0.853 3.71q0.896 1.62 2.35 2.52 1.49 0.896 3.29 0.896 1.79 0 3.24-0.896 1.49-0.896 2.35-2.52 0.896-1.62 0.896-3.71z"/>
      <path d="m118 166q-0.384-0.512-0.384-1.28 0-1.11 1.11-1.88 0.597-0.384 1.24-0.384 0.896 0 1.71 0.811 1.28 1.32 2.65 1.96 1.41 0.64 3.37 0.64 3.33-0.128 3.33-2.52 0-1.24-1.15-1.88-1.11-0.64-3.5-1.28-2.47-0.683-4.05-1.37-1.54-0.683-2.69-2.05-1.11-1.41-1.11-3.75 0-2.05 1.15-3.54 1.19-1.54 3.07-2.35 1.92-0.853 4.05-0.853 2.18 0 4.35 0.811 2.18 0.811 3.41 2.39 0.555 0.683 0.555 1.54 0 0.981-0.811 1.62-0.597 0.469-1.37 0.469-0.939 0-1.54-0.597-0.768-0.939-2.01-1.49-1.19-0.555-2.73-0.555-3.24 0-3.24 2.35 0 0.939 0.597 1.54 0.597 0.555 1.49 0.896 0.939 0.299 2.6 0.768 2.3 0.64 3.84 1.32t2.6 2.09 1.07 3.71q0 2.09-1.24 3.67-1.24 1.54-3.2 2.35-1.92 0.811-3.97 0.811-2.82 0-5.25-0.939t-3.97-3.03z"/>
      <path d="m154 146q1.11 0 1.83 0.768 0.725 0.725 0.725 1.83v18.1q0 5.55-2.99 8.06-2.99 2.56-7.98 2.56-1.45 0-2.99-0.256-1.49-0.213-2.43-0.597-2.09-0.896-2.09-2.47 0-0.299 0.128-0.683 0.256-0.939 0.853-1.45 0.64-0.469 1.37-0.469 0.427 0 0.811 0.128 0.299 0.128 1.02 0.427 0.768 0.299 1.58 0.469 0.853 0.213 1.75 0.213 3.03 0 4.44-1.32 1.45-1.28 1.45-4.44v-0.427q-2.22 2.77-6.91 2.77-2.22 0-3.93-1.02-1.71-1.07-2.65-2.9-0.939-1.88-0.939-4.27v-12.5q0-1.11 0.725-1.83 0.725-0.768 1.83-0.768 1.11 0 1.83 0.768 0.725 0.725 0.725 1.83v10.9q0 2.69 1.15 3.88 1.19 1.15 3.46 1.15 2.22 0 3.41-1.28 1.24-1.32 1.24-3.75v-10.9q0-1.11 0.725-1.83 0.725-0.768 1.83-0.768z"/>
      <path d="m189 139q1.15 0 1.88 0.683 0.725 0.683 0.725 1.79 0 1.11-0.725 1.79-0.725 0.64-1.88 0.64h-6.7v22.4q0 1.11-0.811 1.88-0.811 0.725-2.01 0.725-1.19 0-1.96-0.725-0.768-0.768-0.768-1.88v-22.4h-6.7q-1.15 0-1.88-0.683-0.725-0.683-0.725-1.79 0-1.07 0.725-1.75 0.768-0.683 1.88-0.683z"/>
      <path d="m204 146q1.11 0 1.83 0.768 0.725 0.725 0.725 1.83v10.8q0 4.61-2.56 7.21-2.52 2.6-7.21 2.6t-7.21-2.6-2.52-7.21v-10.8q0-1.11 0.725-1.83 0.725-0.768 1.83-0.768 1.11 0 1.83 0.768 0.725 0.725 0.725 1.83v10.8q0 2.6 1.15 3.88 1.15 1.24 3.46 1.24 2.35 0 3.5-1.24 1.15-1.28 1.15-3.88v-10.8q0-1.11 0.725-1.83 0.725-0.768 1.83-0.768z"/>
      <path d="m222 146q4.35 0 6.02 2.6 1.66 2.56 1.66 7.13v10.9q0 1.11-0.725 1.88-0.725 0.725-1.83 0.725-1.11 0-1.83-0.725-0.725-0.768-0.725-1.88v-10.9q0-2.35-0.981-3.67-0.981-1.37-3.37-1.37-2.47 0-3.88 1.45-1.41 1.41-1.41 3.58v10.9q0 1.11-0.725 1.88-0.725 0.725-1.83 0.725-1.11 0-1.83-0.725-0.725-0.768-0.725-1.88v-17.6q0-1.11 0.725-1.83 0.725-0.768 1.83-0.768 1.11 0 1.83 0.768 0.725 0.725 0.725 1.83v0.725q1.15-1.54 2.99-2.65 1.88-1.11 4.1-1.11z"/>
      <path d="m253 157q-0.0427 1.02-0.811 1.66-0.768 0.64-1.79 0.64h-14.1q0.512 2.52 2.35 3.97 1.83 1.41 4.14 1.41 1.75 0 2.73-0.299 0.981-0.341 1.54-0.683 0.597-0.384 0.811-0.512 0.768-0.384 1.45-0.384 0.896 0 1.54 0.64t0.64 1.49q0 1.15-1.19 2.09-1.19 0.981-3.2 1.66-2.01 0.683-4.05 0.683-3.58 0-6.27-1.49-2.65-1.49-4.1-4.1-1.45-2.65-1.45-5.93 0-3.67 1.54-6.44t4.05-4.22q2.52-1.49 5.38-1.49 2.82 0 5.29 1.54 2.52 1.54 4.01 4.14t1.49 5.63zm-10.8-6.61q-4.95 0-5.85 4.65h11.2v-0.299q-0.171-1.79-1.75-3.07-1.58-1.28-3.58-1.28z"/>
      <path d="m253 166q-0.384-0.512-0.384-1.28 0-1.11 1.11-1.88 0.597-0.384 1.24-0.384 0.896 0 1.71 0.811 1.28 1.32 2.65 1.96 1.41 0.64 3.37 0.64 3.33-0.128 3.33-2.52 0-1.24-1.15-1.88-1.11-0.64-3.5-1.28-2.47-0.683-4.05-1.37-1.54-0.683-2.69-2.05-1.11-1.41-1.11-3.75 0-2.05 1.15-3.54 1.19-1.54 3.07-2.35 1.92-0.853 4.05-0.853 2.18 0 4.35 0.811 2.18 0.811 3.41 2.39 0.555 0.683 0.555 1.54 0 0.981-0.811 1.62-0.597 0.469-1.37 0.469-0.939 0-1.54-0.597-0.768-0.939-2.01-1.49-1.19-0.555-2.73-0.555-3.24 0-3.24 2.35 0 0.939 0.597 1.54 0.597 0.555 1.49 0.896 0.939 0.299 2.6 0.768 2.3 0.64 3.84 1.32t2.6 2.09q1.07 1.41 1.07 3.71 0 2.09-1.24 3.67-1.24 1.54-3.2 2.35-1.92 0.811-3.97 0.811-2.82 0-5.25-0.939t-3.97-3.03z"/>
    </g>
  </g>
</svg>
