<?xml version="1.0" encoding="UTF-8" standalone="no"?>
<!-- Created with Inkscape (http://www.inkscape.org/) -->

<svg
   width="52.91666mm"
   height="10.583333mm"
   viewBox="0 0 52.916661 10.583332"
   version="1.1"
   id="svg4499"
   inkscape:version="1.2.1 (9c6d41e, 2022-07-14)"
   sodipodi:docname="logo.svg"
   xmlns:inkscape="http://www.inkscape.org/namespaces/inkscape"
   xmlns:sodipodi="http://sodipodi.sourceforge.net/DTD/sodipodi-0.dtd"
   xmlns="http://www.w3.org/2000/svg"
   xmlns:svg="http://www.w3.org/2000/svg">
  <sodipodi:namedview
     id="namedview4501"
     pagecolor="#ffffff"
     bordercolor="#999999"
     borderopacity="1"
     inkscape:showpageshadow="0"
     inkscape:pageopacity="0"
     inkscape:pagecheckerboard="0"
     inkscape:deskcolor="#d1d1d1"
     inkscape:document-units="mm"
     showgrid="false"
     inkscape:zoom="3.8198845"
     inkscape:cx="67.017733"
     inkscape:cy="-26.964166"
     inkscape:window-width="1866"
     inkscape:window-height="1051"
     inkscape:window-x="54"
     inkscape:window-y="0"
     inkscape:window-maximized="1"
     inkscape:current-layer="text4804" />
  <defs
     id="defs4496">
    <rect
       x="0"
       y="129.76997"
       width="326.06174"
       height="95.250908"
       id="rect4806" />
  </defs>
  <g
     inkscape:label="Layer 1"
     inkscape:groupmode="layer"
     id="layer1"
     transform="translate(-49.073225,-75.205765)">
    <g
       aria-label="RosyTunes"
       transform="matrix(0.26458333,0,0,0.26458333,30.736702,38.330908)"
       id="text4804"
       style="font-weight:bold;font-size:42.6667px;font-family:Quicksand;-inkscape-font-specification:'Quicksand Bold';text-align:center;letter-spacing:-3px;word-spacing:0px;text-anchor:middle;white-space:pre;shape-inside:url(#rect4806);stroke-width:14;stroke-linecap:round;paint-order:fill markers stroke">
      <path
         d="m 93.731359,166.12509 q 0.57844,0.35555 0.889908,0.93334 0.355962,0.57777 0.355962,1.19999 0,0.8 -0.533944,1.46667 -0.667431,0.79999 -2.046787,0.79999 -1.06789,0 -1.957797,-0.48887 -3.203667,-1.82222 -3.203667,-7.42223 0,-1.6 -1.06789,-2.53334 -1.023393,-0.93333 -2.98119,-0.93333 h -8.320636 v 8.62222 q 0,1.2 -0.66743,1.95556 -0.622935,0.75556 -1.690825,0.75556 -1.290366,0 -2.269264,-0.75556 -0.934403,-0.80001 -0.934403,-1.95556 v -25.68888 q 0,-1.15556 0.756421,-1.91112 0.800917,-0.79999 1.957797,-0.79999 h 12.814669 q 2.313759,0 4.360547,1.24445 2.046788,1.24443 3.248162,3.42222 1.245871,2.17777 1.245871,4.88888 0,2.22222 -1.201375,4.35556 -1.201376,2.08889 -3.114677,3.33333 2.803209,1.95556 3.070181,5.24444 0.133487,0.71111 0.133487,1.37778 0.177981,1.37777 0.355963,2.00001 0.177982,0.57776 0.800917,0.88888 z m -9.121553,-11.55556 q 0.800917,0 1.557338,-0.75554 0.756422,-0.75557 1.24587,-2.00002 0.48945,-1.28888 0.48945,-2.75554 0,-1.24445 -0.48945,-2.26667 -0.489448,-1.06666 -1.24587,-1.68889 -0.756421,-0.62222 -1.557338,-0.62222 h -9.744488 v 10.08888 z"
         id="path5088"
         style="stroke-width:14.5917" />
      <path
         d="m 118.94622,158.61399 q 0,3.55554 -1.60185,6.39999 -1.60183,2.8 -4.40503,4.35555 -2.75871,1.55556 -6.09588,1.55556 -3.38164,0 -6.14035,-1.55556 -2.758713,-1.55555 -4.360546,-4.35555 -1.601834,-2.84445 -1.601834,-6.39999 0,-3.55557 1.601834,-6.35557 1.601833,-2.84444 4.360546,-4.39999 2.75871,-1.6 6.14035,-1.6 3.33717,0 6.09588,1.6 2.8032,1.55555 4.40503,4.39999 1.60185,2.8 1.60185,6.35557 z m -5.33946,0 q 0,-2.17779 -0.9344,-3.86667 -0.8899,-1.73335 -2.44725,-2.66668 -1.51283,-0.93333 -3.38165,-0.93333 -1.86879,0 -3.42613,0.93333 -1.51284,0.93333 -2.44725,2.66668 -0.8899,1.68888 -0.8899,3.86667 0,2.17777 0.8899,3.86666 0.93441,1.68889 2.44725,2.62222 1.55734,0.93333 3.42613,0.93333 1.86882,0 3.38165,-0.93333 1.55735,-0.93333 2.44725,-2.62222 0.9344,-1.68889 0.9344,-3.86666 z"
         id="path5090"
         style="stroke-width:14.5917" />
      <path
         d="m 119.70677,166.79176 q -0.40045,-0.53334 -0.40045,-1.33333 0,-1.15555 1.15689,-1.95556 0.62293,-0.4 1.29036,-0.4 0.9344,0 1.77982,0.84444 1.33485,1.37778 2.7587,2.04444 1.46835,0.66667 3.51514,0.66667 3.47064,-0.13333 3.47064,-2.62221 0,-1.2889 -1.20138,-1.95557 -1.15688,-0.66666 -3.64862,-1.33333 -2.58072,-0.71112 -4.22705,-1.42222 -1.60183,-0.7111 -2.80321,-2.13333 -1.15689,-1.46667 -1.15689,-3.91111 0,-2.13334 1.20137,-3.68889 1.24588,-1.6 3.20368,-2.44444 2.00229,-0.88889 4.22706,-0.88889 2.26926,0 4.53852,0.84444 2.26927,0.84444 3.55963,2.48889 0.57845,0.71111 0.57845,1.6 0,1.02222 -0.84541,1.68889 -0.62294,0.48889 -1.42385,0.48889 -0.97891,0 -1.60184,-0.62223 -0.80093,-0.97777 -2.09129,-1.55555 -1.24587,-0.57778 -2.8477,-0.57778 -3.38165,0 -3.38165,2.44444 0,0.97779 0.62295,1.6 0.62292,0.57778 1.55732,0.93334 0.97891,0.31111 2.71423,0.79999 2.40274,0.66667 4.00458,1.37778 1.60183,0.71112 2.71421,2.17779 1.1124,1.46666 1.1124,3.86666 0,2.17777 -1.29038,3.82222 -1.29036,1.6 -3.33715,2.44445 -2.00229,0.84444 -4.13807,0.84444 -2.93669,0 -5.47293,-0.97777 -2.53624,-0.97779 -4.13808,-3.15556 z"
         id="path5092"
         style="stroke-width:14.5917" />
      <path
         d="m 157.61495,146.70287 q 1.15688,0 1.91329,0.79999 0.75644,0.75557 0.75644,1.91112 v 18.88889 q 0,5.77778 -3.11468,8.4 -3.11468,2.66667 -8.32064,2.66667 -1.51284,0 -3.11468,-0.26667 -1.55734,-0.22223 -2.53624,-0.62222 -2.18027,-0.93334 -2.18027,-2.57779 0,-0.3111 0.13349,-0.7111 0.26698,-0.97778 0.8899,-1.51111 0.66744,-0.48889 1.42385,-0.48889 0.44496,0 0.84542,0.13333 0.31147,0.13334 1.06789,0.44444 0.80092,0.31112 1.64633,0.4889 0.8899,0.22221 1.82431,0.22221 3.15917,0 4.62751,-1.37778 1.51285,-1.33333 1.51285,-4.62221 v -0.44445 q -2.31376,2.88889 -7.20825,2.88889 -2.31376,0 -4.09357,-1.06667 -1.77981,-1.11111 -2.75872,-3.02221 -0.9789,-1.95557 -0.9789,-4.44445 v -12.97778 q 0,-1.15555 0.75643,-1.91112 0.75641,-0.79999 1.9133,-0.79999 1.15688,0 1.91329,0.79999 0.75644,0.75557 0.75644,1.91112 v 11.37778 q 0,2.8 1.20136,4.04444 1.24588,1.2 3.60412,1.2 2.31376,0 3.55965,-1.33333 1.29036,-1.37778 1.29036,-3.91111 v -11.37778 q 0,-1.15555 0.75642,-1.91112 0.75642,-0.79999 1.9133,-0.79999 z"
         id="path5094"
         style="stroke-width:14.5917" />
      <path
         d="m 183.68136,139.36954 q 1.20137,0 1.95779,0.71112 0.75643,0.7111 0.75643,1.86666 0,1.15555 -0.75643,1.86667 -0.75642,0.66666 -1.95779,0.66666 h -6.98578 v 23.28888 q 0,1.15555 -0.84541,1.95556 -0.84541,0.75556 -2.09128,0.75556 -1.24587,0 -2.04679,-0.75556 -0.80091,-0.80001 -0.80091,-1.95556 v -23.28888 h -6.98577 q -1.20138,0 -1.95781,-0.71111 -0.75641,-0.71112 -0.75641,-1.86667 0,-1.11111 0.75641,-1.82221 0.80092,-0.71112 1.95781,-0.71112 z"
         id="path5096"
         style="stroke-width:14.5917" />
      <path
         d="m 199.54622,146.70287 q 1.15687,0 1.91329,0.79999 0.75642,0.75557 0.75642,1.91112 v 11.28888 q 0,4.80001 -2.66971,7.51113 -2.62524,2.7111 -7.51974,2.7111 -4.89448,0 -7.51971,-2.7111 -2.62523,-2.71112 -2.62523,-7.51113 v -11.28888 q 0,-1.15555 0.75643,-1.91112 0.75641,-0.79999 1.9133,-0.79999 1.15688,0 1.9133,0.79999 0.75642,0.75557 0.75642,1.91112 v 11.28888 q 0,2.71112 1.20137,4.04445 1.20138,1.28889 3.60412,1.28889 2.44725,0 3.64863,-1.28889 1.20138,-1.33333 1.20138,-4.04445 v -11.28888 q 0,-1.15555 0.75642,-1.91112 0.75642,-0.79999 1.91331,-0.79999 z"
         id="path5098"
         style="stroke-width:14.5917" />
      <path
         d="m 217.87044,146.25843 q 4.53852,0 6.27385,2.71111 1.73532,2.66666 1.73532,7.42221 v 11.37778 q 0,1.15555 -0.75643,1.95556 -0.75642,0.75556 -1.9133,0.75556 -1.15688,0 -1.9133,-0.75556 -0.75642,-0.80001 -0.75642,-1.95556 v -11.37778 q 0,-2.44443 -1.02339,-3.82221 -1.02341,-1.42223 -3.51513,-1.42223 -2.58074,0 -4.04909,1.51112 -1.46834,1.46666 -1.46834,3.73332 v 11.37778 q 0,1.15555 -0.75642,1.95556 -0.75643,0.75556 -1.9133,0.75556 -1.15689,0 -1.91331,-0.75556 -0.75641,-0.80001 -0.75641,-1.95556 v -18.35555 q 0,-1.15555 0.75641,-1.91112 0.75642,-0.79999 1.91331,-0.79999 1.15687,0 1.9133,0.79999 0.75642,0.75557 0.75642,1.91112 v 0.75556 q 1.20137,-1.6 3.11467,-2.75556 1.9578,-1.15555 4.27156,-1.15555 z"
         id="path5100"
         style="stroke-width:14.5917" />
      <path
         d="m 250.43916,158.0362 q -0.0445,1.06666 -0.84541,1.73334 -0.80092,0.66666 -1.86881,0.66666 h -14.68347 q 0.53395,2.62222 2.44724,4.13334 1.91331,1.46666 4.31606,1.46666 1.82431,0 2.84771,-0.31111 1.02338,-0.35555 1.60183,-0.71111 0.62293,-0.40001 0.84541,-0.53334 0.80092,-0.39999 1.51285,-0.39999 0.9344,0 1.60183,0.66666 0.66743,0.66667 0.66743,1.55556 0,1.2 -1.24587,2.17778 -1.24587,1.02222 -3.33715,1.73333 -2.09129,0.71111 -4.22707,0.71111 -3.73761,0 -6.54082,-1.55556 -2.75871,-1.55555 -4.27155,-4.26666 -1.51284,-2.75556 -1.51284,-6.17778 0,-3.82222 1.60183,-6.71111 1.60183,-2.88889 4.22706,-4.4 2.62522,-1.55555 5.60641,-1.55555 2.9367,0 5.51743,1.6 2.62523,1.6 4.18257,4.31111 1.55733,2.71111 1.55733,5.86666 z m -11.25733,-6.88889 q -5.16146,0 -6.09586,4.84444 h 11.65778 v -0.3111 q -0.17798,-1.86666 -1.82431,-3.2 -1.64632,-1.33334 -3.73761,-1.33334 z"
         id="path5102"
         style="stroke-width:14.5917" />
      <path
         d="m 250.92679,166.79176 q -0.40045,-0.53334 -0.40045,-1.33333 0,-1.15555 1.15687,-1.95556 0.62293,-0.4 1.29038,-0.4 0.9344,0 1.77979,0.84444 1.33487,1.37778 2.75873,2.04444 1.46834,0.66667 3.51514,0.66667 3.47063,-0.13333 3.47063,-2.62221 0,-1.2889 -1.20138,-1.95557 -1.15687,-0.66666 -3.64862,-1.33333 -2.58072,-0.71112 -4.22706,-1.42222 -1.60184,-0.7111 -2.8032,-2.13333 -1.15688,-1.46667 -1.15688,-3.91111 0,-2.13334 1.20137,-3.68889 1.24588,-1.6 3.20367,-2.44444 2.00229,-0.88889 4.22707,-0.88889 2.26925,0 4.53852,0.84444 2.26926,0.84444 3.55963,2.48889 0.57843,0.71111 0.57843,1.6 0,1.02222 -0.84541,1.68889 -0.62293,0.48889 -1.42385,0.48889 -0.9789,0 -1.60184,-0.62223 -0.80091,-0.97777 -2.09127,-1.55555 -1.24587,-0.57778 -2.8477,-0.57778 -3.38165,0 -3.38165,2.44444 0,0.97779 0.62292,1.6 0.62295,0.57778 1.55735,0.93334 0.97889,0.31111 2.71421,0.79999 2.40276,0.66667 4.00459,1.37778 1.60184,0.71112 2.71422,2.17779 1.11238,1.46666 1.11238,3.86666 0,2.17777 -1.29036,3.82222 -1.29036,1.6 -3.33716,2.44445 -2.00229,0.84444 -4.13807,0.84444 -2.9367,0 -5.47293,-0.97777 -2.53623,-0.97779 -4.13807,-3.15556 z"
         id="path5104"
         style="stroke-width:14.5917" />
    </g>
  </g>
</svg>
